<svg width="381" height="290" viewBox="0 0 381 290" fill="none" xmlns="http://www.w3.org/2000/svg">
<path d="M186.411 26.8009C186.469 43.6909 186.463 50.5769 185.329 53.8209C184.329 56.6529 185.269 57.2589 192.63 73.2209C192.97 73.9609 193.398 74.7829 192.692 75.4769C191.586 76.5669 191.492 76.2769 169.093 60.5649C165.549 58.0769 167.159 59.9129 106.049 58.1649C101.395 58.0329 98.7027 55.1449 98.1107 49.7049C96.6107 35.9189 97.6227 21.1629 98.7467 7.39886C99.2107 1.70886 101.445 0.356857 105.449 0.294857C130.139 -0.0871428 154.309 -0.305145 181.165 0.986855C187.619 1.29085 186.347 7.56086 186.411 26.8009ZM187.835 70.0589C187.897 70.1709 188.139 70.2589 187.807 70.0809C187.983 69.4949 187.561 69.0809 187.337 68.6409C182.095 58.1229 180.575 56.8269 182.299 52.7969C183.767 49.3689 183.127 39.0289 183.191 32.4869C183.269 24.2817 183.296 16.0757 183.271 7.86885C183.257 2.55485 181.485 3.72685 160.519 3.34085C119.633 2.59085 116.231 2.31086 106.101 3.25286C101.301 3.69886 101.129 3.29686 100.545 30.2729C100.103 50.6849 100.889 54.8889 106.817 54.9309C120.759 55.0269 157.941 56.2469 165.941 56.5189C170.269 56.6669 169.541 56.9329 175.941 61.5529C179.893 64.4069 183.601 67.5969 187.835 70.0589Z" fill="#504CFF"/>
<path d="M138.913 16.1752C109.655 16.1872 116.881 16.2912 109.099 15.6472C107.157 15.4852 106.975 13.3632 109.077 13.0692C117.215 11.9292 160.117 12.1312 168.197 12.1792C172.197 12.2032 173.247 12.3972 173.431 13.9792C173.717 16.3992 172.181 16.1512 138.913 16.1752Z" fill="#504CFF"/>
<path d="M172.335 33.1512C172.76 33.1808 173.158 33.3721 173.447 33.6855C173.736 33.9989 173.895 34.4109 173.89 34.8373C173.886 35.2635 173.718 35.6721 173.422 35.9791C173.127 36.2863 172.725 36.4687 172.299 36.4893C169.279 36.8073 117.807 37.5332 109.945 36.5512C108.971 36.4312 107.945 36.2933 107.991 35.0713C108.035 33.9753 108.991 33.8492 109.923 33.7592C121.713 32.6072 172.291 33.1352 172.335 33.1512Z" fill="#504CFF"/>
<path d="M139.499 26.381C109.381 26.381 107.809 26.667 107.861 24.581C107.917 22.327 111.287 22.603 171.025 22.591C172.505 22.591 173.701 22.917 173.677 24.391C173.661 25.451 172.837 25.991 171.767 26.027C153.525 26.675 139.499 26.175 139.499 26.381Z" fill="#504CFF"/>
<path d="M134.454 265.229C131.654 263.211 133.744 252.857 134.58 249.511C134.845 248.767 135.281 248.093 135.853 247.547C136.425 247.003 137.117 246.599 137.874 246.369C159.528 236.451 183.408 238.549 188.874 242.503C185.662 244.281 165.154 237.769 138.642 248.983C138.127 249.179 137.668 249.497 137.306 249.913C136.944 250.329 136.69 250.827 136.566 251.363C135.873 253.945 135.405 256.583 135.166 259.247C134.816 263.047 135.632 264.549 139.51 265.873C167.888 275.569 174.606 270.933 174.682 273.439C174.676 273.721 174.61 273.997 174.49 274.253C174.369 274.507 174.196 274.733 173.982 274.915C173.768 275.099 173.518 275.235 173.247 275.313C172.977 275.393 172.693 275.415 172.414 275.377C161.194 274.231 139.868 270.447 134.454 265.229Z" fill="#5D5D5D"/>
<path d="M142.8 136.887C138.854 145.137 133.362 143.823 133.614 147.385C134.314 157.303 133.3 157.305 135.756 158.883C140.258 161.775 147.376 159.791 147.156 153.715C146.594 145.527 146.539 137.311 146.992 129.115C147.326 125.027 149.75 124.115 151.322 120.105C151.962 118.471 151.422 117.739 149.662 117.953C145.846 118.415 143.802 121.469 143.126 120.663C142.726 120.189 143.31 119.847 143.65 119.563C148.158 115.789 154.05 114.963 153.004 120.051C152.046 124.745 148.344 124.587 148.466 132.565C148.578 139.953 148.712 147.339 148.866 154.723C148.728 156.203 148.177 157.613 147.275 158.793C146.374 159.973 145.159 160.877 143.768 161.399C139.33 163.117 132.838 161.519 132.368 156.987C131.336 146.941 132.61 146.091 130.468 146.289C114.596 147.745 109.368 130.391 109.138 114.453C109.026 106.669 109.738 96.9334 115.98 92.2694C116.356 91.9894 116.848 91.3254 117.29 91.7954C117.81 92.3494 117.036 92.6694 116.69 92.9954C108.342 100.901 109.86 120.395 113.478 131.317C115.036 136.019 117.316 140.383 122.006 142.749C131.78 147.689 137.014 141.665 142.8 136.887Z" fill="#5D5D5D"/>
<path d="M83.3362 221.501C82.4426 219.413 82.3712 217.065 83.1362 214.927C91.1782 173.069 129.956 153.683 131.232 157.567C131.934 159.707 115.264 162.521 98.6102 186.235C86.6602 203.265 85.2142 219.689 83.3362 221.501Z" fill="#5D5D5D"/>
<path d="M91.1205 105.151C94.9205 105.451 98.3465 106.571 99.9805 110.517C100.427 111.475 100.571 112.546 100.393 113.587C100.214 114.628 99.7211 115.59 98.9805 116.343C94.8285 120.943 93.6065 120.405 93.1805 126.133C93.1305 126.789 93.3405 127.765 92.4145 127.845C91.5425 127.921 91.0505 127.143 90.7505 126.337C87.1905 116.801 101.784 114.323 95.1505 110.079C92.1705 108.171 89.1365 108.843 86.1845 110.173C82.5505 111.809 83.3385 114.599 81.7405 113.833C79.5625 112.787 83.0525 106.665 87.1645 105.805C88.4449 105.399 89.7773 105.179 91.1205 105.151Z" fill="#504CFF"/>
<path d="M117.211 196.965C118.523 199.779 117.681 207.017 118.299 219.631C119.099 235.899 122.075 243.851 120.227 244.303C116.581 245.193 113.087 214.227 117.211 196.965Z" fill="#5D5D5D"/>
<path d="M160.106 150.915C168.52 150.861 176.894 152.063 184.952 154.485C185.846 154.737 186.674 154.905 186.21 156.207C184.982 159.651 184.222 155.661 164.532 153.419C158.67 152.753 151.808 153.219 151.698 151.765C151.614 150.627 152.602 151.081 160.106 150.915Z" fill="#5D5D5D"/>
<path d="M176.076 192.351C180.728 204.185 183.752 212.403 188.276 219.501C188.542 219.917 188.848 220.301 188.434 220.735C185.722 223.523 175.634 200.351 175.634 192.471L176.076 192.351Z" fill="#5D5D5D"/>
<path d="M107.68 255.577C107.372 256.177 106.754 256.889 107.68 257.717C112.772 250.093 121.196 247.917 130.256 250.907C130.632 251.033 131.16 251.519 131.506 250.983C133.38 248.065 114.518 242.365 107.68 255.577Z" fill="#5D5D5D"/>
<path d="M143.354 95.2594C132.938 93.4014 127.906 100.813 126.24 101.715C125.32 102.213 124.11 101.611 124.906 100.261C128.434 94.2754 139.78 91.5814 143.354 95.2594Z" fill="#5D5D5D"/>
<path d="M135.148 89.5093C118.508 92.7973 119.842 101.835 117.762 101.097C116.962 100.811 117.43 99.9573 117.618 99.4113C120.326 91.5513 129.936 87.6913 135.148 89.5093Z" fill="#5D5D5D"/>
<path d="M121.229 252.849C119.322 253.079 117.481 253.689 115.814 254.643C114.147 255.595 112.687 256.871 111.521 258.397C111.252 258.643 111.051 258.955 110.937 259.301C110.823 259.647 110.8 260.017 110.871 260.375C114.621 257.775 118.227 255.109 122.929 254.889C124.237 254.831 124.121 252.551 121.229 252.849Z" fill="#5D5D5D"/>
<path d="M127.381 258.307C122.875 255.493 115.095 260.629 115.999 263.431C119.345 261.367 122.693 259.399 126.827 259.753C127.013 259.805 127.211 259.785 127.384 259.697C127.556 259.609 127.69 259.461 127.759 259.281C127.828 259.101 127.827 258.901 127.758 258.721C127.688 258.541 127.553 258.393 127.381 258.307Z" fill="#5D5D5D"/>
<path d="M147.98 102.001C145.918 100.761 143.511 100.217 141.115 100.45C138.719 100.682 136.462 101.679 134.676 103.293C134.198 103.669 133.676 104.279 133.004 103.705C132.232 103.045 133.034 102.515 133.344 102.085C136.336 97.9371 145.18 97.7271 147.98 102.001Z" fill="#5D5D5D"/>
<path d="M131.882 264.115C131.008 265.901 128.518 261.829 121.282 266.115C119.352 267.255 120.482 262.835 126.838 261.807C130.526 261.205 132.38 263.101 131.882 264.115Z" fill="#5D5D5D"/>
<path d="M142.482 105.871C144.923 105.767 147.336 106.424 149.386 107.751C149.74 107.987 150.328 108.261 150.048 108.801C149.702 109.469 149.23 108.899 148.884 108.713C143.42 105.763 140.03 109.469 139.81 107.113C139.694 105.875 141.082 106.019 142.482 105.871Z" fill="#5D5D5D"/>
<path d="M126.924 131.639C124.084 133.089 122.324 132.153 122.124 129.361C121.62 122.319 121.524 122.321 122.062 122.257C122.818 122.165 122.674 122.999 122.728 123.433C123.392 128.753 122.548 131.089 125.542 131.165C126.021 131.264 126.486 131.423 126.924 131.639Z" fill="#5D5D5D"/>
<path d="M133.878 116.931C133.334 117.845 130.818 115.393 127.752 116.609C126.996 116.909 126.42 116.145 127.072 115.379C129.758 112.231 134.644 115.645 133.878 116.931Z" fill="#5D5D5D"/>
<path d="M112.75 120.291C112.378 118.315 113.55 117.419 114.678 116.587C115.206 116.169 115.843 115.91 116.513 115.841C117.183 115.772 117.858 115.895 118.46 116.197C118.639 116.24 118.794 116.351 118.893 116.506C118.992 116.66 119.028 116.847 118.993 117.028C118.957 117.208 118.854 117.368 118.704 117.474C118.554 117.58 118.368 117.624 118.186 117.597C117.143 117.644 116.121 117.907 115.185 118.371C114.249 118.835 113.42 119.489 112.75 120.291Z" fill="#5D5D5D"/>
<path d="M131.672 132.041C131.937 132.747 132.004 133.512 131.868 134.254C131.731 134.995 131.396 135.686 130.898 136.252C130.399 136.817 129.756 137.237 129.038 137.466C128.319 137.695 127.552 137.724 126.818 137.551C125.95 137.255 126.12 136.297 126.818 136.267C129.292 136.169 130.53 134.511 131.672 132.041Z" fill="#5D5D5D"/>
<path d="M92.6282 130.151C92.8646 130.158 93.0974 130.21 93.3134 130.307C93.5292 130.403 93.724 130.541 93.8866 130.713C94.0492 130.885 94.1764 131.087 94.261 131.308C94.3454 131.528 94.3856 131.764 94.3792 132C94.3728 132.236 94.3198 132.469 94.2234 132.685C94.127 132.901 93.989 133.096 93.8174 133.259C93.6456 133.421 93.4436 133.548 93.2228 133.633C93.002 133.717 92.7666 133.758 92.5302 133.751C92.0528 133.738 91.6002 133.536 91.2718 133.189C90.9434 132.842 90.7662 132.379 90.7792 131.902C90.7922 131.425 90.9944 130.972 91.341 130.644C91.6878 130.315 92.1508 130.138 92.6282 130.151Z" fill="#38A1FF"/>
<path d="M150.943 114.181C144.433 112.279 144.431 112.967 144.357 112.269C144.197 110.751 149.401 111.665 150.943 114.181Z" fill="#5D5D5D"/>
<path d="M131.644 125.675C130.616 125.577 130.478 124.663 130.468 123.823C130.468 123.043 130.558 122.153 131.578 122.203C133.26 122.283 133.44 125.845 131.644 125.675Z" fill="#5D5D5D"/>
<path d="M115.662 125.459C115.64 124.551 115.762 123.783 116.662 123.787C117.96 123.787 117.95 124.891 118.01 125.799C118.054 126.485 118.072 127.351 117.074 127.313C115.838 127.265 115.828 126.185 115.662 125.459Z" fill="#5D5D5D"/>
<path d="M78.5264 223.751C85.9424 223.829 85.9424 224.585 86.7804 226.551C89.8904 233.857 93.0984 241.119 96.1804 248.435C108.43 277.505 106.046 275.863 111.402 275.857C144.918 275.825 144.912 275.473 144.852 277.339C144.764 279.939 144.162 279.029 115.714 279.675C101.764 279.991 54.9584 280.801 31.4144 280.819C23.8564 280.819 24.8364 283.251 7.42645 235.267C5.74445 230.631 5.54245 225.353 10.7324 225.319C20.2344 225.277 71.0784 223.681 78.5264 223.751Z" fill="#854CFF"/>
<path d="M1.84048 287.573C95.1944 286.623 258.828 285.419 378.24 284.773C379.118 284.773 380.07 284.477 380.164 286.013C380.258 287.549 380.012 288.093 378.286 288.097C275.8 288.385 8.27448 290.097 2.08648 289.807C-1.65552 289.631 0.516478 287.587 1.84048 287.573Z" fill="#5D5D5D"/>
<path d="M211.404 170.767C197.104 171.021 186.426 158.637 188.144 157.241C189.656 156.015 198.222 168.477 211.296 168.691C213.484 168.727 212.482 167.573 215.234 161.841C215.436 161.501 215.522 161.107 215.482 160.715C215.44 160.323 215.274 159.955 215.006 159.667C210.064 152.867 205.606 151.903 203.244 148.023C207.704 148.703 213.284 152.897 217.122 158.319C219.374 155.063 222.908 154.891 226.304 154.611C239.91 153.799 253.562 154.945 266.842 158.011C276.192 159.925 276.424 161.195 277.146 159.083C279.51 152.165 286.452 136.008 290.698 130.93C291.478 131.768 290.824 131.082 282.65 151.401C281.526 154.201 280.784 157.143 279.84 160.001C279.284 161.685 279.854 161.229 286.622 163.931C287.084 164.115 287.734 164.347 287.464 165.013C287.1 165.909 286.892 164.919 272.242 161.443C256.842 157.791 233.158 154.765 222.492 157.747C221.62 157.955 220.802 158.351 220.1 158.909C219.396 159.469 218.826 160.173 218.424 160.977C216.554 164.721 215.128 168.673 214.18 172.751C212.488 179.427 240.046 204.551 273.998 201.977C296.61 200.265 315.472 180.131 320.598 158.733C322.128 151.581 321.828 144.158 319.73 137.152C312.852 111.352 287.48 99.3645 262.084 101.072C251.98 101.75 247.308 104.812 246.628 103.532C246.364 103.036 246.77 102.772 247.082 102.544C259.36 93.5645 311.346 95.1445 322.614 136.29C324.586 143.258 325.012 150.573 323.862 157.723C323.532 159.723 329.492 165.459 331.648 177.481C332.178 179.931 332.092 182.475 331.402 184.885C330.71 187.295 329.434 189.499 327.686 191.297C314.112 205.983 285.296 220.385 259.56 221.097C258.602 221.183 257.638 221.031 256.754 220.655C255.87 220.277 255.092 219.685 254.494 218.933C242.816 205.679 242.628 197.933 238.562 198.459C237.326 198.619 237.886 227.805 216.888 264.329C216.418 265.347 215.644 266.193 214.67 266.751C213.698 267.309 212.576 267.549 211.46 267.441C206.086 267.291 199.35 268.655 198.124 264.909C189.336 238.063 189.142 200.765 193.022 170.461C193.124 169.661 193.376 169.023 194.27 169.155C194.506 169.161 194.736 169.223 194.944 169.331C195.152 169.441 195.332 169.595 195.474 169.785C195.614 169.973 195.708 170.191 195.754 170.423C195.798 170.653 195.788 170.891 195.728 171.119C191.106 208.537 193.884 240.027 199.066 260.063C200.498 265.599 199.048 264.975 205.666 265.339C212.408 265.709 213.302 265.739 214.552 263.827C225.574 246.979 240.408 199.263 234.152 195.941C222.934 189.983 217.824 184.717 213.53 178.617C210.12 173.751 212.854 170.253 211.404 170.767ZM245.128 201.167C248.22 206.039 251.456 210.793 254.836 215.431C255.496 216.387 256.39 217.157 257.434 217.669C258.478 218.179 259.636 218.413 260.796 218.349C281.248 218.335 333.904 196.715 328.874 176.661C327.658 171.485 325.66 166.527 322.95 161.955C312.014 195.291 281.594 213.891 245.128 201.151V201.167Z" fill="#5D5D5D"/>
<path d="M237.258 46.5629C236.084 25.9629 263.344 28.1869 258.834 43.3909C268.1 44.0529 272.618 55.9909 264.234 60.5149C263.434 60.9449 263.3 61.2169 263.434 62.1709C264.07 66.5849 260.896 73.8349 254.298 73.6509C252.982 73.6149 252.852 73.9969 252.986 75.2129C254.04 84.7089 247.728 96.2589 236.86 96.0749C239.23 99.3455 241.91 102.381 244.86 105.141C250.804 109.941 239.22 122.541 229.59 115.875C227.172 114.203 223.762 107.713 222.39 106.771C221.06 105.861 219.722 107.505 218.274 107.687C204.17 109.465 203.11 97.3029 194.022 90.8109C189.978 87.9209 199.082 87.3649 197.386 70.2329C196.898 65.2969 196.6 60.3669 198.958 55.7129C200.762 52.4813 203.218 49.6593 206.168 47.4251C209.118 45.1911 212.5 43.5935 216.1 42.7335C219.7 41.8735 223.438 41.7699 227.08 42.4289C230.722 43.0881 234.188 44.4957 237.258 46.5629ZM241.658 53.4849C239.562 51.2867 237.232 49.3245 234.71 47.6329C225.354 42.4109 216.222 43.4329 207.51 49.0749C190.276 60.2249 204.51 73.2849 196.03 87.0469C194.696 89.2129 194.616 89.1869 196.592 90.9009C202.308 95.8529 205.434 103.351 211.148 105.387C213.712 106.333 216.52 106.373 219.11 105.499C221.698 104.626 223.91 102.892 225.376 100.587C225.99 99.4403 226.774 98.3921 227.698 97.4769C228.848 98.3869 226.698 102.449 224.598 104.277C222.718 105.909 224.934 105.499 229.734 113.277C230.08 113.958 230.67 114.485 231.386 114.753C236.45 116.313 241.42 115.303 243.918 109.997C245.206 107.259 243.626 107.335 240.384 103.711C229.384 91.4149 227.312 87.8249 232.106 82.6629C236.194 78.2629 237.354 77.0389 236.24 75.4449C234.93 73.5749 232.102 74.6989 230.262 76.3589C221.9 83.9069 210.022 73.3809 203.108 64.4889C202.856 64.1649 202.428 63.7909 202.798 63.2389C204.114 63.2489 210.998 73.9049 220.758 76.7829C227.018 78.6309 228.928 74.3929 231.758 73.1689C236.62 71.0649 240.534 75.6229 237.1 79.8669C233.778 83.9689 231.512 85.1149 231.458 87.4109C231.526 89.1885 232.262 90.8753 233.518 92.1353C234.774 93.3953 236.458 94.1363 238.236 94.2109C239.934 94.1353 241.59 93.6627 243.072 92.8313C244.556 91.9997 245.822 90.8323 246.772 89.4229C255.652 77.0809 247.418 67.9909 246.772 64.9669C251.122 66.3349 250.598 71.7369 255.04 70.9889C261.188 69.9549 262.852 61.2989 260.084 61.6969C259.34 61.8029 256.612 61.5569 256.768 60.8549C256.916 60.1829 258.136 60.3049 258.414 60.3009C266.924 60.1469 268.614 49.5569 261.234 45.8249C257.362 43.8689 257 47.5389 256.012 47.2449C255.362 47.0449 256.032 46.3929 256.974 43.2449C258.806 37.0929 253.912 31.6809 246.002 34.1569C244.43 34.6345 242.996 35.4839 241.824 36.6333C240.65 37.7827 239.77 39.1979 239.26 40.7593C238.75 42.3207 238.624 43.9821 238.892 45.6027C239.16 47.2233 239.816 48.7553 240.802 50.0689C241.246 50.5033 241.562 51.0523 241.714 51.6553C241.868 52.2581 241.85 52.8913 241.664 53.4849H241.658Z" fill="#5D5D5D"/>
<path d="M341.05 279.803C341.808 260.825 349.928 229.585 332.6 188.589C332.216 187.679 331.934 186.905 332.506 186.499C336.658 183.557 357.39 236.565 343.168 280.253C342.962 280.883 340.94 282.571 341.05 279.803Z" fill="#5D5D5D"/>
<path d="M298.932 281.335C297.932 277.831 296.932 271.635 295.214 264.393C287.126 230.369 283.49 228.373 285.67 227.631C286.604 227.313 286.962 228.267 287.284 228.897C293.822 241.709 296.716 253.435 299.254 269.109C299.866 272.895 301.824 277.749 301.71 281.749C301.704 281.951 300.714 287.551 298.932 281.335Z" fill="#5D5D5D"/>
<path d="M257.712 280.905C254.016 272.357 251.974 248.617 255.572 225.105C255.716 224.173 255.638 222.719 256.886 222.805C258.242 222.897 257.572 222.805 256.954 247.605C256.54 264.205 259.448 274.925 259.754 280.389C259.902 283.213 258.836 283.503 257.712 280.905Z" fill="#5D5D5D"/>
<path d="M255.18 144.467C254.956 143.067 257.13 141.793 275.14 133.125C276.34 132.543 277.452 132.525 278.102 134.125C279.93 138.587 282.042 139.925 279.38 141.325C259.746 151.699 259.56 152.865 258.338 150.797C256.886 148.911 255.814 146.761 255.18 144.467ZM275.506 140.991C279.216 139.023 278.676 139.759 277.076 136.239C276.518 135.007 275.99 135.117 274.982 135.629C270.122 138.109 265.182 140.439 260.366 142.999C259.34 143.545 257.366 143.501 257.542 145.147C257.672 146.363 258.764 147.477 259.416 148.641C260.046 149.751 260.766 148.811 275.508 140.991H275.506Z" fill="#504CFF"/>
<path d="M226.738 115.795C226.538 117.183 222.854 118.579 216.394 125.527C204.058 138.793 205.194 146.109 201.744 144.413C200.846 143.971 201.182 143.241 201.504 142.613C206.78 132.357 214.136 122.649 223.764 116.299C225.236 115.331 226.402 114.493 226.738 115.795Z" fill="#5D5D5D"/>
<path d="M173.534 282.289C171.976 278.617 182.702 266.511 195.372 268.535C196.294 268.683 197.83 268.715 197.784 269.753C197.658 272.653 186.152 266.405 173.534 282.289Z" fill="#5D5D5D"/>
<path d="M178.009 282.711C182.693 272.499 196.784 271.439 196.236 274.571C195.868 276.675 189.411 273.629 179.673 281.985C179.46 282.213 179.202 282.395 178.916 282.521C178.63 282.645 178.321 282.709 178.009 282.711Z" fill="#5D5D5D"/>
<path d="M187.16 282.723C187.233 282.211 187.413 281.721 187.689 281.283C187.965 280.845 188.33 280.473 188.76 280.187C191.988 277.867 195.834 276.561 199.806 276.437C200.806 276.423 201.632 276.593 201.716 277.503C201.898 279.457 198.668 278.399 192.752 280.623L187.16 282.723Z" fill="#5D5D5D"/>
<path d="M211.892 283.327C210.862 283.015 212.998 277.453 212.292 271.569C212.092 269.873 214.042 269.569 214.65 271.169C216.12 275.033 213.426 283.793 211.892 283.327Z" fill="#5D5D5D"/>
<path d="M203.968 153.867C203.444 155.925 197.156 152.123 195.068 145.281C194.962 144.931 194.578 144.481 195.158 144.247C195.858 143.959 199.758 150.125 203.596 153.079C203.724 153.163 203.828 153.281 203.894 153.421C203.96 153.559 203.986 153.713 203.968 153.867Z" fill="#5D5D5D"/>
<path d="M245.356 56.9993C233.198 65.8893 220.678 71.3273 207.32 64.1173C206.898 63.8893 206.13 63.6513 206.384 63.0833C207.02 61.6653 217.564 70.4153 235.472 61.3393C245.114 56.4513 244.532 56.5653 245.356 56.9993Z" fill="#5D5D5D"/>
<path d="M239.98 66.3223C239.8 66.7289 239.542 67.0953 239.218 67.3997C238.894 67.7041 238.512 67.9405 238.096 68.0943C231.22 71.4343 224.192 72.9083 216.812 69.7223C215.774 69.2743 215.43 69.1543 215.612 68.7523C216.368 67.0783 222.51 73.8663 239.98 66.3223Z" fill="#5D5D5D"/>
<path d="M220.886 58.5511C214.634 61.3511 201.528 59.8451 201.686 58.4611C201.864 56.9031 205.78 59.9691 220.886 58.5511Z" fill="#5D5D5D"/>
<path d="M212.522 92.0982C207.544 94.8102 207.438 95.0322 207.144 94.4242C206.85 93.8162 207.23 93.9842 211.878 90.9342C213.638 89.7822 213.768 91.4182 214.54 93.5342C216.98 100.224 206.94 99.5982 210.688 97.8922C213.042 96.827 213.654 94.8956 212.522 92.0982Z" fill="#5D5D5D"/>
<path d="M206.276 74.6447C202.85 74.1607 201.808 76.0887 201.18 74.9407C200.246 73.2267 206.542 71.3947 208.78 73.7007C209.926 74.8787 207.918 74.6447 206.276 74.6447Z" fill="#5D5D5D"/>
<path d="M206.728 84.5864C204.992 84.4904 204.928 81.0024 206.604 81.0684C208.28 81.1344 208.38 84.6784 206.728 84.5864Z" fill="#5D5D5D"/>
<path d="M188.666 151.495C188.608 151.095 188.537 150.771 188.921 150.661C189.115 150.597 189.326 150.601 189.519 150.671C189.711 150.741 189.875 150.875 189.983 151.049C192.342 154.737 195.406 157.925 198.998 160.431C199.498 160.799 200.23 161.141 199.762 161.903C198.964 163.199 190.546 159.103 188.666 151.495Z" fill="#5D5D5D"/>
<path d="M192.198 147.151C194.844 150.629 197.932 153.749 201.382 156.435C201.81 156.731 202.268 157.093 201.994 157.715C200.748 160.561 190.704 151.317 192.198 147.151Z" fill="#5D5D5D"/>
</svg>
