<svg width="149" height="99" viewBox="0 0 149 99" fill="none" xmlns="http://www.w3.org/2000/svg">
<path d="M28.254 38.7104L149 0.500004C149 0.500004 111.06 22.2292 113.129 33.956C110.715 42.5787 123.477 48.787 123.477 48.787L105.197 46.7176L24.7552 61.0081C24.7552 61.0081 23.1217 56.053 23.0907 52.3761C23.0114 42.3788 28.254 38.7104 28.254 38.7104Z" fill="#ECEBFF"/>
<path d="M11.3722 67.9349L118.648 47.0624C118.648 47.0624 94.1485 58.8867 94.5044 74.3101C94.8845 90.7463 134.514 98.4536 134.514 98.4536L12.111 95.2646C12.111 95.2646 6.29652 91.7327 6.20891 81.0875C6.12959 71.09 11.3722 67.9349 11.3722 67.9349Z" fill="#ECEBFF"/>
<path d="M23.4253 41.4697L136.583 6.36341C136.583 6.36341 108.979 19.5668 109.335 34.9907C109.335 46.3726 123.132 51.5463 123.132 51.5463L104.177 47.1824L19.9265 63.7674C19.9265 63.7674 18.2931 58.8123 18.262 55.1354C18.182 45.1381 23.4253 41.4697 23.4253 41.4697Z" fill="#854CFF"/>
<path d="M5.16386 70.6941L105.541 52.5809C105.541 52.5809 89.6647 60.6112 90.0206 76.0346C90.4007 92.4708 120.028 98.0238 120.028 98.0238H5.90265C5.90265 98.0238 0.0882077 94.492 0.000601361 83.8467C-0.0787272 73.8493 5.16386 70.6941 5.16386 70.6941Z" fill="#504CFF"/>
</svg>
